<svg width="179" height="44" viewBox="0 0 179 44" fill="none" xmlns="http://www.w3.org/2000/svg">
<path d="M31.6972 31.0817C31.6972 33.0476 31.3074 34.7976 30.5303 36.3331C29.7516 37.8686 28.6772 39.1589 27.3049 40.2039C25.9327 41.2482 24.2843 42.0464 22.3598 42.5994C20.4345 43.1524 18.346 43.4293 16.0942 43.4293C13.1044 43.4293 10.2899 43.0094 7.64762 42.1698C5.00613 41.3317 2.45717 39.9075 0 37.9003L3.93178 32.8023C5.77428 34.1536 7.72962 35.2083 9.79783 35.966C11.8653 36.7243 13.944 37.1028 16.0325 37.1028C18.817 37.1028 20.8949 36.5415 22.268 35.416C23.6395 34.292 24.3257 32.8716 24.3257 31.1532C24.3257 29.969 24.0495 29.0075 23.4966 28.2717C22.9436 27.5359 22.1958 26.9227 21.2546 26.4322C20.3126 25.9424 19.2375 25.5535 18.03 25.2676C16.8217 24.9817 15.5623 24.6747 14.2525 24.3467C12.6139 23.9796 11.0272 23.5093 9.49162 22.9368C7.95608 22.3643 6.60486 21.618 5.43722 20.6978C4.27033 19.7785 3.32764 18.6537 2.6114 17.3258C1.89442 15.9972 1.5363 14.3713 1.5363 12.4506C1.5363 10.6517 1.86357 8.99432 2.51886 7.4821C3.17341 5.96913 4.1161 4.66079 5.34468 3.5571C6.57326 2.4534 8.04711 1.58521 9.76698 0.95173C11.4868 0.317502 13.4114 0 15.5412 0C18.0797 0 20.588 0.254306 23.0655 0.760636C25.5429 1.26772 27.9083 2.23145 30.1609 3.65038L27.0281 9.39833C25.1442 8.25325 23.2701 7.45427 21.4073 7.00286C19.543 6.55296 17.711 6.32724 15.9091 6.32724C14.9258 6.32724 13.9944 6.45062 13.1142 6.69589C12.2332 6.94115 11.4552 7.3098 10.7796 7.80184C10.104 8.29312 9.56083 8.91758 9.15155 9.6752C8.74228 10.4336 8.53764 11.3243 8.53764 12.3475C8.53764 13.3715 8.80397 14.2314 9.33663 14.9281C9.86854 15.6248 10.575 16.2078 11.456 16.678C12.3362 17.1498 13.3391 17.538 14.4654 17.8449C15.5916 18.1519 16.7691 18.4287 17.9977 18.6755C20.0042 19.1269 21.8467 19.6581 23.5259 20.272C25.2044 20.8867 26.6481 21.6751 27.8564 22.6374C29.0639 23.5996 30.0066 24.756 30.6822 26.108C31.3578 27.4599 31.6972 29.1158 31.6972 31.0817Z" fill="white"/>
<path d="M79.3907 15.1725C77.8183 13.2473 75.4409 12.285 72.2562 12.285C71.725 12.285 71.1435 12.3174 70.5115 12.3783C69.878 12.4408 69.164 12.5965 68.3681 12.8433C67.5713 13.0923 66.6745 13.4436 65.6739 13.8981C64.674 14.3532 63.5613 14.9529 62.3365 15.6969L61.7218 12.6537H61.5398H55.8249V33.9158C52.6621 36.1217 49.9506 37.2246 47.6905 37.2246C46.3739 37.2246 45.2424 36.8153 44.2952 35.9952C43.3488 35.1767 42.8755 33.7442 42.8755 31.6956V12.6529H36.364V32.2478C36.364 35.6484 37.2028 38.3606 38.8828 40.3867C40.5613 42.4143 43.0598 43.4277 46.3769 43.4277C47.4001 43.4277 48.6393 43.2328 50.0935 42.8446C51.5471 42.4557 53.4618 41.5446 55.837 40.1106L56.4456 43.0598H56.6021H62.3365H62.3485V21.6675C63.8999 20.691 65.37 19.9379 66.7588 19.4075C68.1506 18.8771 69.4003 18.6108 70.5055 18.6108C71.8567 18.6108 72.983 19.0088 73.8843 19.8055C74.7848 20.6022 75.2355 22.0437 75.2355 24.1255V43.059H81.7463V23.1557C81.747 19.7589 80.9616 17.097 79.3907 15.1725Z" fill="white"/>
<path d="M93.9216 3.43975V43.0606H90.9731V3.43975H77.7047V0.736572H107.067V3.43975H93.9216Z" fill="white"/>
<path d="M128.692 32.4337C128.692 35.8735 127.603 38.5661 125.427 40.5109C123.25 42.4565 120.353 43.4285 116.741 43.4285C114.974 43.4285 113.363 43.172 111.906 42.6604C110.448 42.1488 109.195 41.4115 108.149 40.4492C107.102 39.4877 106.291 38.3404 105.716 37.0095C105.141 35.6794 104.854 34.1739 104.854 32.4947V23.2807C104.854 21.6436 105.171 20.1584 105.808 18.8268C106.444 17.4966 107.306 16.3696 108.394 15.4487C109.483 14.5271 110.746 13.8116 112.182 13.2993C113.619 12.7877 115.158 12.5311 116.803 12.5311C118.485 12.5311 120.056 12.7884 121.516 13.2993C122.974 13.8124 124.237 14.5279 125.303 15.4487C126.372 16.3703 127.202 17.4974 127.797 18.8268C128.392 20.1584 128.691 21.6436 128.691 23.2807V32.4337H128.692ZM125.927 24.1007C125.927 22.4591 125.651 21.0635 125.098 19.9139C124.546 18.7658 123.839 17.8307 122.979 17.1122C122.119 16.3944 121.144 15.8708 120.058 15.5413C118.972 15.2133 117.898 15.0492 116.833 15.0492C115.728 15.0492 114.622 15.214 113.516 15.5413C112.411 15.8708 111.429 16.3944 110.567 17.1122C109.707 17.8307 109.001 18.7651 108.449 19.9139C107.896 21.0635 107.62 22.4598 107.62 24.1007V31.7972C107.62 33.4795 107.875 34.8969 108.388 36.045C108.9 37.1953 109.574 38.129 110.414 38.8475C111.253 39.566 112.226 40.0889 113.333 40.4176C114.438 40.7464 115.605 40.9097 116.833 40.9097C118.063 40.9097 119.219 40.7366 120.304 40.3875C121.39 40.0377 122.355 39.4937 123.194 38.7549C124.033 38.0161 124.699 37.0727 125.191 35.9231C125.681 34.7728 125.927 33.3975 125.927 31.7972V24.1007Z" fill="white"/>
<path d="M155.71 43.0605L155.228 38.8828C153.835 39.7427 152.596 40.4597 151.512 41.0322C150.427 41.607 149.444 42.0772 148.564 42.4459C147.682 42.8138 146.874 43.0688 146.137 43.2133C145.4 43.3562 144.682 43.4284 143.987 43.4284C140.874 43.4284 138.479 42.579 136.8 40.8795C135.121 39.1799 134.281 36.5903 134.281 33.1085V12.8989H137.045V32.3892C137.045 35.373 137.68 37.509 138.95 38.7962C140.219 40.0828 141.979 40.7253 144.232 40.7253C145.706 40.7253 147.405 40.2874 149.33 39.4079C151.255 38.5299 153.22 37.3751 155.227 35.9448V12.8989H157.991V43.0605H155.71Z" fill="white"/>
<path d="M179 15.7247C176.256 16.0121 173.983 16.6065 172.181 17.5063C170.379 18.4076 168.967 19.2059 167.943 19.9025V43.0605H165.179V12.8989H167.513L167.943 17.3837H168.004C168.618 16.8517 169.345 16.3078 170.185 15.7556C171.023 15.2034 171.935 14.6918 172.918 14.22C173.901 13.7498 174.914 13.3707 175.959 13.0833C177.003 12.7974 178.017 12.613 178.999 12.5303V15.7247H179Z" fill="white"/>
</svg>
