<svg width="32" height="32" viewBox="0 0 32 32" fill="none" xmlns="http://www.w3.org/2000/svg">
<path d="M16.001 0C7.16285 0 0 7.16285 0 16.001C0 24.8372 7.16285 32 16.001 32C24.8372 32 32 24.8372 32 16.001C32 7.16285 24.8372 0 16.001 0ZM22.104 8.14741L19.8918 8.14905C18.1559 8.14905 17.82 8.97403 17.82 10.1841V12.8517H21.9583L21.9567 17.0318H17.82V27.7544H13.504V17.0302H9.89639V12.8517H13.504V9.76995C13.504 6.19425 15.6892 4.24558 18.8798 4.24558L22.1057 4.25049V8.14741H22.104Z" fill="white"/>
</svg>
