<svg width="18" height="16" viewBox="0 0 18 16" fill="none" xmlns="http://www.w3.org/2000/svg">
<path d="M1.2425 6.83106C5.9075 4.79906 9.0175 3.45931 10.5725 2.81206C15.0175 0.963806 15.94 0.642806 16.5425 0.631931C16.675 0.629806 16.97 0.662555 17.1625 0.81818C17.3225 0.94943 17.3675 1.12693 17.39 1.25156C17.41 1.37606 17.4375 1.65981 17.415 1.88131C17.175 4.41131 16.1325 10.5508 15.6025 13.3846C15.38 14.5836 14.9375 14.9856 14.51 15.0248C13.58 15.1103 12.875 14.4108 11.975 13.8211C10.5675 12.8978 9.7725 12.3233 8.405 11.4226C6.825 10.3816 7.85 9.80931 8.75 8.87431C8.985 8.62956 13.08 4.90581 13.1575 4.56806C13.1675 4.52581 13.1775 4.36831 13.0825 4.28531C12.99 4.20206 12.8525 4.23056 12.7525 4.25306C12.61 4.28506 10.3625 5.77206 6.0025 8.71381C5.365 9.15231 4.7875 9.36605 4.2675 9.3548C3.6975 9.34255 2.5975 9.03181 1.78 8.76631C0.779999 8.44056 -0.0175012 8.26831 0.0524988 7.71506C0.0874988 7.42706 0.484999 7.13231 1.2425 6.83106Z" fill="#008BAA"/>
</svg>
